<svg width="462" height="450" viewBox="0 0 462 450" fill="none" xmlns="http://www.w3.org/2000/svg">
<rect x="6" y="6" width="438" height="438" rx="74" fill="#C4622D"/>
<rect x="6" y="6" width="438" height="438" rx="74" stroke="#C4622D" stroke-width="12"/>
<g filter="url(#filter0_d_190_9781)">
<path d="M217.041 130.409V319.5H186.572L97.4744 190.7H95.9048V319.5H61.6506V130.409H92.304L181.31 259.301H182.972V130.409H217.041Z" fill="#F7F5F1"/>
<path d="M254.651 319.5V130.409H327.037C340.702 130.409 352.058 132.563 361.107 136.872C370.216 141.119 377.018 146.936 381.511 154.322C386.066 161.709 388.344 170.08 388.344 179.436C388.344 187.13 386.866 193.716 383.912 199.195C380.957 204.611 376.987 209.012 372.001 212.398C367.016 215.783 361.445 218.214 355.29 219.692V221.538C361.999 221.908 368.431 223.97 374.587 227.724C380.804 231.418 385.882 236.65 389.821 243.42C393.76 250.191 395.73 258.378 395.73 267.98C395.73 277.767 393.36 286.569 388.621 294.386C383.881 302.142 376.741 308.267 367.2 312.76C357.66 317.253 345.657 319.5 331.192 319.5H254.651ZM288.905 290.878H325.744C338.178 290.878 347.134 288.508 352.612 283.768C358.152 278.967 360.922 272.812 360.922 265.303C360.922 259.701 359.537 254.654 356.767 250.161C353.997 245.606 350.058 242.036 344.949 239.45C339.84 236.804 333.746 235.48 326.668 235.48H288.905V290.878ZM288.905 210.828H322.79C328.699 210.828 334.023 209.751 338.763 207.597C343.502 205.381 347.226 202.272 349.935 198.271C352.705 194.209 354.089 189.408 354.089 183.868C354.089 176.543 351.504 170.511 346.334 165.771C341.225 161.032 333.623 158.662 323.528 158.662H288.905V210.828Z" fill="#F7F5F1"/>
</g>
<defs>
<filter id="filter0_d_190_9781" x="-10.3" y="12.2" width="482.6" height="433.6" filterUnits="userSpaceOnUse" color-interpolation-filters="sRGB">
<feFlood flood-opacity="0" result="BackgroundImageFix"/>
<feColorMatrix in="SourceAlpha" type="matrix" values="0 0 0 0 0 0 0 0 0 0 0 0 0 0 0 0 0 0 127 0" result="hardAlpha"/>
<feOffset dx="6" dy="4"/>
<feGaussianBlur stdDeviation="29.65"/>
<feComposite in2="hardAlpha" operator="out"/>
<feColorMatrix type="matrix" values="0 0 0 0 0 0 0 0 0 0 0 0 0 0 0 0 0 0 0.47 0"/>
<feBlend mode="normal" in2="BackgroundImageFix" result="effect1_dropShadow_190_9781"/>
<feBlend mode="normal" in="SourceGraphic" in2="effect1_dropShadow_190_9781" result="shape"/>
</filter>
</defs>
</svg>
